<svg xmlns="http://www.w3.org/2000/svg" width="21.297" height="27.763" viewBox="0 0 21.297 27.763">
    <defs>
        <style>
            .cls-1{fill:#fff}
        </style>
    </defs>
    <g id="constructor" transform="translate(-62.397)">
        <path id="Path_11137" d="M82.013 332.152a2.951 2.951 0 0 0-2.315-1.015h-2l-1.316-1.268a5.344 5.344 0 0 1-3.409 1.253A5.271 5.271 0 0 1 69.734 330l-1.173 1.126h-2.087a3.172 3.172 0 0 0-2.537 1.11c-1.887 2.188-1.57 6.865-1.427 8.308h21.12c.111-1.463.301-6.251-1.617-8.392z" class="cls-1" transform="translate(0 -312.777)"/>
        <path id="Path_11138" d="M148.737 182.376a1.826 1.826 0 0 0-.634 1.411 1.684 1.684 0 0 0 1.3 1.712 5.836 5.836 0 0 0 1.506 3.33 5.2 5.2 0 0 0 .539.492 4.8 4.8 0 0 0 .761.492 4.242 4.242 0 0 0 3.964 0 4.8 4.8 0 0 0 .761-.492 5.2 5.2 0 0 0 .539-.492 5.773 5.773 0 0 0 1.49-3.314h.048a1.625 1.625 0 0 0 1.506-1.728 1.826 1.826 0 0 0-.634-1.411z" class="cls-1" transform="translate(-81.265 -172.926)"/>
        <path id="Path_11139" d="M151.387 41.808a7.25 7.25 0 0 0-3.441-4.154v4.3a1.327 1.327 0 0 1-.127.492 1.246 1.246 0 0 1-1.094.682h-2a1.244 1.244 0 0 1-1.221-1.062.65.65 0 0 1-.016-.174v-4.254a7.33 7.33 0 0 0-3.441 4.17l-.111.349h-.9v1.982h13.355v-1.982h-.891z" class="cls-1" transform="translate(-72.668 -35.688)"/>
        <path id="Path_11140" d="M235.14 6.945h1.982a.73.73 0 0 0 .65-.4.679.679 0 0 0 .1-.349V.983a1.236 1.236 0 0 0-.072-.349 1 1 0 0 0-.92-.634h-1.74a.725.725 0 0 0-.729.65c0 .032-.016.063-.016.1V6.2a.8.8 0 0 0 .127.428.773.773 0 0 0 .618.317z" class="cls-1" transform="translate(-163.085)"/>
    </g>
</svg>
