<svg xmlns="http://www.w3.org/2000/svg" width="570.038" height="601.527" viewBox="0 0 570.038 601.527">
    <defs>
        <style>
            .cls-1{fill:#886ef5}.cls-2{fill:#eda16e}.cls-3{fill:#db353e}.cls-4{fill:#e6f7fc}.cls-5{fill:#b2c7cc}.cls-6{fill:#a06635}.cls-7{fill:#e2fbfe}.cls-8{fill:#b8d7d8}.cls-9{fill:#eefeff}.cls-10{fill:#629ff9}.cls-13{fill:#2b2b2b;opacity:.15}.cls-14{fill:#7da0a0}.cls-15,.cls-17,.cls-18,.cls-56{fill:none}.cls-15{stroke:#a1aec9}.cls-15,.cls-17,.cls-18{stroke-miterlimit:10}.cls-15{stroke-width:1.176px}.cls-17,.cls-18{stroke:#755f5d;stroke-width:1.764px}.cls-18{stroke:#4f3938}.cls-21{fill:#cc7a42}.cls-22{fill:#292933}.cls-25{fill:#383942}.cls-26{fill:#474954}.cls-27{fill:#848ea0}.cls-29{fill:#ffa219}.cls-30{fill:#ff8c1a}.cls-56{stroke-linecap:round;stroke-linejoin:round}.cls-36{fill:#b71224}.cls-38{fill:#0d6094}.cls-39{fill:#003f5f}.cls-41{fill:#ffad94}.cls-42{fill:#ea7c6b}.cls-45{fill:#ff8f29}.cls-46{fill:#ffda22}.cls-49{fill:#bfd5d8}.cls-51{fill:#5550bc}.cls-56{stroke:#fff;stroke-width:7.336px}.cls-62{fill:#561916}
        </style>
    </defs>
    <g id="Group_7253" transform="translate(-58 -39.375)">
        <g id="Group_7207" transform="translate(337.101 39.375)">
            <g id="Group_7206">
                <path id="Path_15781" d="M662.4 39.375H518.789a17.823 17.823 0 0 0-17.77 17.77v.455c0 9.773-6.334 17.77-14.076 17.77s-14.075-3.239-14.075-7.2-6.546-7.2-14.545-7.2-14.544 8-14.544 17.77v89.225c0 9.774 6.545 17.77 14.544 17.77s14.545-8 14.545-17.77v-6.931c0-9.773 6.334-17.77 14.075-17.77s14.076 8 14.076 17.77v76.527a17.822 17.822 0 0 0 17.77 17.769h7.759a17.821 17.821 0 0 0 17.769-17.769v-15.822c0-9.774 5.144-17.77 11.43-17.77s11.431 8 11.431 17.77v234.1a17.821 17.821 0 0 0 17.769 17.769h81.334a17.821 17.821 0 0 0 17.769-17.769V57.145a17.822 17.822 0 0 0-17.769-17.77z" class="cls-1" transform="translate(-443.779 -39.375)"/>
            </g>
        </g>
        <g id="Group_7209" transform="translate(562.043 567.64)">
            <path id="Path_15782" d="M768.064 785.015c-2.206-4.279-9.74-12.5-11.233-11.728s.174 11.744 2.447 16.258c1.679 3.332 7.585 11.87 9.048 15.3s-3.427 12.161-2.913 17.8l26.348-13.619c-5.061-3.88-14.532-4.567-16.483-7.766s-5.505-12.929-7.214-16.245zm-5.331-3.354a1.62 1.62 0 1 1-2.183-.7 1.621 1.621 0 0 1 2.183.7z" class="cls-2" transform="translate(-756.266 -773.236)"/>
            <path id="Path_15783" d="M768.064 785.015c-2.206-4.279-9.74-12.5-11.233-11.728s.174 11.744 2.447 16.258c.17.338.386.732.634 1.167a20.455 20.455 0 0 0 4.873-1.616 16.7 16.7 0 0 0 3.873-2.841c-.216-.474-.415-.894-.594-1.24zm-6.028-1.17a1.621 1.621 0 1 1 .7-2.183 1.621 1.621 0 0 1-.7 2.182z" class="cls-3" transform="translate(-756.266 -773.236)"/>
            <path id="Path_15784" d="M795.32 822.952l-26.347 13.619 4.31 8.361 26.347-13.619z" class="cls-4" transform="translate(-759.826 -787.164)"/>
            <g id="Group_7208" transform="translate(11.429 40.195)">
                <path id="Path_15785" d="M779.461 839.967a.963.963 0 1 0-.415 1.3.964.964 0 0 0 .415-1.3z" class="cls-5" transform="translate(-773.683 -831.98)"/>
                <path id="Path_15786" d="M799.5 829.6a.963.963 0 1 0-.415 1.3.964.964 0 0 0 .415-1.3z" class="cls-5" transform="translate(-779.297 -829.074)"/>
                <path id="Path_15787" d="M798.47 829.075l-26.327 13.657.773 1.5 26.327-13.658z" class="cls-5" transform="translate(-772.142 -829.075)"/>
            </g>
            <path id="Path_15788" d="M807.914 845.569c-.691 1.073-3.11 2.879-4.578 4.031l-1.353-1.116.345 1.872c-.425.31-.871.612-1.324.907l-2.368-2.937 1.325 3.592c-1.454.893-4.1 2.289-6.81 3.606h-14.996l-1.893-4.341-1.3-2.995 26.346-13.619 2.512 4.189z" class="cls-6" transform="translate(-761.503 -790.419)"/>
        </g>
        <g id="Group_7211" transform="translate(117.802 512.392)">
            <path id="Path_15789" d="M156.586 728.7c-.965 3.626-6.368 7.656-10.127 12.819l21.222 4.049c-1.106-5.558-4.891-11.875-4.459-15.6.43-3.712 4.209-13.484 4.875-17.161.9-4.98-.624-15.994-2.265-16.307s-6.555 9.717-7.458 14.452c-.701 3.664-.827 14.133-1.788 17.748zm7.852-23.775a1.623 1.623 0 1 1-1.9 1.29 1.624 1.624 0 0 1 1.901-1.294z" class="cls-2" transform="translate(-141.184 -696.486)"/>
            <path id="Path_15790" d="M170.4 696.493c-1.653-.316-6.555 9.717-7.458 14.452-.065.344-.127.749-.183 1.2a21.98 21.98 0 0 0 4.894 1.538 18.327 18.327 0 0 0 4.8.088c.087-.356.16-.685.212-.972.899-4.978-.627-15.993-2.265-16.306zm-2 11.617a1.623 1.623 0 1 1 1.9-1.29 1.623 1.623 0 0 1-1.9 1.29z" class="cls-3" transform="translate(-145.75 -696.486)"/>
            <path id="Rectangle_6072" d="M0 0H21.605V9.42H0z" class="cls-4" transform="scale(-1) rotate(10.78 296.807 -160.265)"/>
            <g id="Group_7210" transform="translate(3.978 47.722)">
                <path id="Path_15791" d="M165.95 766.141a.964.964 0 1 1 .767 1.128.964.964 0 0 1-.767-1.128z" class="cls-5" transform="translate(-150.617 -763.502)"/>
                <circle id="Ellipse_1416" cx=".965" cy=".965" r=".965" class="cls-5" transform="translate(5.596)"/>
                <path id="Rectangle_6073" d="M0 0H21.605V1.64H0z" class="cls-5" transform="scale(-1) rotate(10.78 32.62 -116.565)"/>
            </g>
            <path id="Path_15792" d="M139.131 785.816c.965.834 22 4.7 22.869 4.364l1.862-14.237-21.222-4.049z" class="cls-6" transform="translate(-139.131 -717.612)"/>
        </g>
        <g id="Group_7217" transform="translate(92.36 571.676)">
            <g id="Group_7212" transform="translate(2.325 .045)">
                <path id="Rectangle_6074" d="M0 0H48.567V61.038H0z" class="cls-7"/>
                <path id="Rectangle_6075" d="M0 0H17.179V61.038H0z" class="cls-8" transform="translate(31.388)"/>
                <path id="Rectangle_6076" d="M0 0H7.104V61.038H0z" class="cls-9" transform="translate(5.167)"/>
            </g>
            <g id="Group_7213" transform="translate(2.325 15.36)">
                <path id="Rectangle_6077" d="M0 0H48.567V30.409H0z" class="cls-10"/>
                <path id="Rectangle_6078" fill="#478cdd" d="M0 0H17.179V30.409H0z" transform="translate(31.388)"/>
                <path id="Rectangle_6079" fill="#7bb7ff" d="M0 0H7.104V30.409H0z" transform="translate(5.167)"/>
            </g>
            <g id="Group_7214" transform="translate(13.303 3.508)">
                <path id="Path_15793" d="M152.691 793.291a1.98 1.98 0 0 1-1.98-1.98v-7.261h3.961v7.261a1.981 1.981 0 0 1-1.981 1.98z" class="cls-10" transform="translate(-130.235 -783.81)"/>
                <path id="Path_15794" d="M124.247 789.1a1.98 1.98 0 0 0 1.98-1.98v-3.4h-3.961v3.4a1.98 1.98 0 0 0 1.981 1.98z" class="cls-10" transform="translate(-122.266 -783.716)"/>
                <path id="Path_15795" d="M144.076 789.687a1.98 1.98 0 0 1-1.981-1.98v-3.12h3.961v3.12a1.98 1.98 0 0 1-1.98 1.98z" class="cls-10" transform="translate(-127.821 -783.96)"/>
                <path id="Path_15796" d="M167.125 790.949a1.981 1.981 0 0 1-1.98-1.98v-4.947h3.961v4.947a1.981 1.981 0 0 1-1.981 1.98z" class="cls-10" transform="translate(-134.279 -783.802)"/>
            </g>
            <path id="Rectangle_6080" d="M0 0H48.567V4.004H0z" class="cls-13" transform="translate(2.325 2.454)"/>
            <g id="Group_7215">
                <path id="Path_15797" d="M154.549 783.751h-48.308a2.462 2.462 0 0 1-2.455-2.454 2.462 2.462 0 0 1 2.455-2.454h48.309A2.461 2.461 0 0 1 157 781.3a2.461 2.461 0 0 1-2.451 2.451z" class="cls-14" transform="translate(-103.786 -778.843)"/>
                <path id="Path_15798" d="M154.549 861.852h-48.308a2.462 2.462 0 0 1-2.455-2.454 2.462 2.462 0 0 1 2.455-2.455h48.309A2.462 2.462 0 0 1 157 859.4a2.461 2.461 0 0 1-2.451 2.452z" class="cls-14" transform="translate(-103.786 -800.723)"/>
            </g>
            <g id="Group_7216" transform="translate(11.433)">
                <path id="Rectangle_6081" d="M3.409 0h13.735a3.409 3.409 0 0 1 3.409 3.409v1.5H0v-1.5A3.409 3.409 0 0 1 3.409 0z" class="cls-10" transform="translate(16.144)"/>
                <path id="Rectangle_6082" d="M0 0h5.831v1.993a2.916 2.916 0 0 1-2.915 2.915A2.916 2.916 0 0 1 0 1.993V0z" class="cls-10" transform="rotate(180 2.916 2.454)"/>
            </g>
        </g>
        <g id="Group_7225" transform="translate(139.992 246.155)">
            <path id="Line_1622" d="M0 0L41.486 287.199" class="cls-15" transform="translate(63.701 95.264)"/>
            <path id="Path_15799" fill="none" stroke="#b9c7ea" stroke-miterlimit="10" stroke-width="1.176px" d="M182.449 705.5l68.327-354.2c3.18-12.813 17.551-24.667 34.269-24.667h3.794" transform="translate(-173.456 -326.632)"/>
            <g id="Group_7218" transform="translate(10 319.663)">
                <path id="Line_1623" d="M134.419 0L0 0" class="cls-17"/>
                <path id="Line_1624" d="M25.702 0L0 0" class="cls-18" transform="translate(108.717)"/>
            </g>
            <g id="Group_7219" transform="translate(20.194 268.671)">
                <path id="Line_1625" d="M134.419 0L0 0" class="cls-17"/>
                <path id="Line_1626" d="M25.702 0L0 0" class="cls-18" transform="translate(108.717)"/>
            </g>
            <g id="Group_7220" transform="translate(29.529 217.678)">
                <path id="Line_1627" d="M29.409 0L0 0" class="cls-17"/>
                <path id="Line_1628" d="M37.849 0L0 0" class="cls-18" transform="translate(29.409)"/>
                <path id="Line_1629" d="M67.161 0L0 0" class="cls-17" transform="translate(67.258)"/>
                <path id="Line_1630" d="M26.027 0L0 0" class="cls-18" transform="translate(108.392)"/>
            </g>
            <g id="Group_7221" transform="translate(40.31 166.686)">
                <path id="Line_1631" d="M134.419 0L0 0" class="cls-17"/>
                <path id="Line_1632" d="M28.006 0L0 0" class="cls-18" transform="translate(37.249)"/>
                <path id="Line_1633" d="M13.877 0L0 0" class="cls-17" transform="translate(64.422)"/>
                <path id="Line_1634" d="M44.633 0L0 0" class="cls-18" transform="translate(109.041)"/>
            </g>
            <g id="Group_7222" transform="translate(113.643 178.14)">
                <path id="Path_15800" fill="#dddadb" d="M356.864 587.559a35.472 35.472 0 0 0 .233 4.423l-25.336-1.871c.248-2.1.425-3.635.572-4.865.41-3.5.526-4.547 1.014-8.91l24-2.234c-.023 2.6-.379 7.857-.449 10.564-.034 1.091-.041 2.058-.034 2.893z" transform="translate(-328.93 -574.103)"/>
                <path id="Path_15801" fill="#8e8387" d="M357.032 584.667c-.031 1.091-.82 4.126-.812 4.961-6.09-2.8-20.791-6.114-23.969-2.512.41-3.5.746-6.417 1.233-10.779l24-2.234c-.026 2.597-.384 7.857-.452 10.564z" transform="translate(-329.067 -574.103)"/>
                <path id="Path_15802" d="M328.082 603.535a23.627 23.627 0 0 1 1.4-10.2c1.121-2.543 9.631-4.074 16.173.676 5.539 4.022 10.1-3.191 10.166-5.263 3.511 6.608 15.494 5.611 15.494 19.647 0 0-4.1.747-22.115.747-14.309.001-21.118-5.607-21.118-5.607z" class="cls-21" transform="translate(-327.888 -578.206)"/>
                <path id="Path_15803" d="M328.051 617.222c-.485-2.5-.029-7.933-.029-7.933l23.039.327a3.488 3.488 0 0 1 2.5 1.115l1.33 1.433a3.49 3.49 0 0 0 2.5 1.114h13.894v3.943z" class="cls-22" transform="translate(-327.828 -583.961)"/>
            </g>
            <path id="Line_1635" fill="none" stroke="#6f7b93" stroke-miterlimit="10" stroke-width="1.176px" d="M0 0L23.774 0.002" transform="translate(115.383)"/>
            <path id="Path_15804" d="M362.772 326.635H375.8a34.846 34.846 0 0 1 14.865 3.3" class="cls-15" transform="translate(-223.975 -326.633)"/>
            <path id="Path_15805" fill="none" stroke="#d4e1fc" stroke-miterlimit="10" stroke-width="1.176px" d="M383.526 331.216a34.939 34.939 0 0 1 19.5 38.247l-65.754 340.916" transform="translate(-216.831 -327.916)"/>
            <path id="Line_1636" d="M40.827 279.093L0 0" class="cls-15" transform="translate(175.809 103.37)"/>
            <g id="Group_7223" transform="translate(0 374.603)">
                <path id="Path_15806" d="M461.974 847.028h8.972a1.519 1.519 0 0 1 1.1.476c3.555 3.755 4.945 11.515 4.945 11.515h-15.444a59.3 59.3 0 0 1-.117-11.494.546.546 0 0 1 .544-.497z" class="cls-25" transform="translate(-251.553 -847.028)"/>
                <path id="Path_15807" d="M307.963 847.028h8.973a1.52 1.52 0 0 1 1.1.476c3.554 3.755 4.944 11.515 4.944 11.515h-15.444a59.259 59.259 0 0 1-.116-11.494.545.545 0 0 1 .543-.497z" class="cls-25" transform="translate(-208.406 -847.028)"/>
                <path id="Path_15808" d="M339.752 847.028h-8.972a1.521 1.521 0 0 0-1.1.476c-3.554 3.755-4.944 11.515-4.944 11.515h15.446a59.29 59.29 0 0 0 .117-11.494.546.546 0 0 0-.547-.497z" class="cls-26" transform="translate(-213.318 -847.028)"/>
                <path id="Path_15809" d="M184.976 847.028H176a1.52 1.52 0 0 0-1.1.476c-3.555 3.755-4.945 11.515-4.945 11.515H185.4a59.292 59.292 0 0 0 .117-11.494.545.545 0 0 0-.541-.497z" class="cls-26" transform="translate(-169.956 -847.028)"/>
            </g>
            <g id="Group_7224" transform="translate(129.858 164.468)">
                <circle id="Ellipse_1417" cx="2.509" cy="2.509" r="2.509" class="cls-27" transform="translate(29.551)"/>
                <path id="Path_15810" fill="#717a89" d="M429.082 557.619a2.509 2.509 0 1 1-2.509-2.509 2.51 2.51 0 0 1 2.509 2.509z" transform="translate(-371.004 -555.11)"/>
                <path id="Path_15811" d="M382.971 628.052a2.509 2.509 0 1 1-2.509-2.509 2.508 2.508 0 0 1 2.509 2.509z" class="cls-27" transform="translate(-358.086 -574.842)"/>
                <path id="Path_15812" d="M369.214 698.891a2.509 2.509 0 1 1-2.509-2.51 2.51 2.51 0 0 1 2.509 2.51z" class="cls-27" transform="translate(-354.232 -594.688)"/>
                <path id="Path_15813" d="M355.373 769.729a2.509 2.509 0 1 1-2.509-2.509 2.51 2.51 0 0 1 2.509 2.509z" class="cls-27" transform="translate(-350.354 -614.534)"/>
            </g>
        </g>
        <g id="Group_7231" transform="translate(447.609 580.045)">
            <g id="Group_7226" transform="translate(2.007 .039)">
                <path id="Rectangle_6083" d="M0 0H41.918V52.682H0z" class="cls-7"/>
                <path id="Rectangle_6084" d="M0 0H14.827V52.682H0z" class="cls-8" transform="translate(27.09)"/>
                <path id="Rectangle_6085" d="M0 0H6.132V52.682H0z" class="cls-9" transform="translate(4.459)"/>
            </g>
            <g id="Group_7227" transform="translate(2.007 13.257)">
                <path id="Rectangle_6086" d="M0 0H41.918V26.245H0z" class="cls-29"/>
                <path id="Rectangle_6087" d="M0 0H14.827V26.245H0z" class="cls-30" transform="translate(27.09)"/>
                <path id="Rectangle_6088" fill="#ffb81a" d="M0 0H6.132V26.245H0z" transform="translate(4.459)"/>
            </g>
            <g id="Group_7228" transform="translate(4.645 2.118)">
                <path id="Path_15814" d="M605.458 799.322a1.71 1.71 0 0 1-1.71-1.71v-2.938h3.419v2.938a1.71 1.71 0 0 1-1.709 1.71z" class="cls-29" transform="translate(-603.748 -793.766)"/>
                <path id="Path_15815" d="M620.414 800.775a1.709 1.709 0 0 1-1.71-1.709V793.9h3.419v5.168a1.709 1.709 0 0 1-1.709 1.707z" class="cls-29" transform="translate(-607.938 -793.548)"/>
                <path id="Path_15816" d="M628.144 802.964a1.71 1.71 0 0 1-1.709-1.71v-7.843h3.419v7.843a1.71 1.71 0 0 1-1.71 1.71z" class="cls-29" transform="translate(-610.104 -793.412)"/>
            </g>
            <path id="Rectangle_6089" d="M0 0H41.918V3.456H0z" class="cls-13" transform="translate(2.007 2.118)"/>
            <g id="Group_7229">
                <path id="Path_15817" d="M641.108 794.705h-41.694a2.125 2.125 0 0 1-2.118-2.118 2.125 2.125 0 0 1 2.118-2.119h41.695a2.124 2.124 0 0 1 2.119 2.119 2.124 2.124 0 0 1-2.12 2.118z" class="cls-14" transform="translate(-597.295 -790.469)"/>
                <path id="Path_15818" d="M641.108 862.113h-41.694a2.125 2.125 0 0 1-2.118-2.119 2.125 2.125 0 0 1 2.118-2.118h41.695a2.124 2.124 0 0 1 2.119 2.118 2.125 2.125 0 0 1-2.12 2.119z" class="cls-14" transform="translate(-597.295 -809.354)"/>
            </g>
            <g id="Group_7230" transform="translate(4.645)">
                <path id="Rectangle_6090" d="M2.943 0h3.1a2.943 2.943 0 0 1 2.941 2.943v1.293H0V2.943A2.943 2.943 0 0 1 2.943 0z" class="cls-29" transform="translate(10.766)"/>
                <path id="Rectangle_6091" d="M2.943 0h3.213A2.943 2.943 0 0 1 9.1 2.943v1.293H0V2.943A2.943 2.943 0 0 1 2.943 0z" class="cls-29"/>
                <path id="Rectangle_6092" d="M2.8 0a2.8 2.8 0 0 1 2.8 2.8v1.436H0V2.8A2.8 2.8 0 0 1 2.8 0z" class="cls-29" transform="translate(33.12)"/>
            </g>
        </g>
        <g id="Group_7237" transform="translate(501.465 557.449)">
            <g id="Group_7232" transform="translate(2.866 .056)">
                <path id="Rectangle_6093" d="M0 0H59.871V75.244H0z" class="cls-7"/>
                <path id="Rectangle_6094" d="M0 0H21.178V75.244H0z" class="cls-8" transform="translate(38.693)"/>
                <path id="Rectangle_6095" d="M0 0H8.758V75.244H0z" class="cls-9" transform="translate(6.369)"/>
            </g>
            <g id="Group_7233" transform="translate(2.866 18.935)">
                <path id="Rectangle_6096" d="M0 0H59.871V37.486H0z" class="cls-1"/>
                <path id="Rectangle_6097" fill="#6a55e5" d="M0 0H21.178V37.486H0z" transform="translate(38.693)"/>
                <path id="Rectangle_6098" fill="#9785ff" d="M0 0H8.758V37.486H0z" transform="translate(6.369)"/>
            </g>
            <g id="Group_7234" transform="translate(6.635 3.025)">
                <path id="Path_15819" d="M719.311 773.139a2.441 2.441 0 0 1-2.442-2.442v-7.38h4.883v7.38a2.441 2.441 0 0 1-2.441 2.442z" class="cls-1" transform="translate(-691.286 -763.291)"/>
                <path id="Path_15820" d="M683.771 771.723a2.441 2.441 0 0 1-2.442-2.441v-4.2h4.883v4.2a2.441 2.441 0 0 1-2.441 2.441z" class="cls-1" transform="translate(-681.329 -763.787)"/>
                <path id="Rectangle_6099" d="M0 0h4.883v7.38a2.442 2.442 0 0 1-2.441 2.442A2.442 2.442 0 0 1 0 7.38V0z" class="cls-1" transform="translate(14.012 .501)"/>
                <path id="Path_15821" d="M725.652 776.925a2.442 2.442 0 0 1-2.442-2.442v-11.2h4.883v11.2a2.442 2.442 0 0 1-2.441 2.442z" class="cls-1" transform="translate(-693.062 -763.281)"/>
            </g>
            <path id="Rectangle_6100" d="M0 0H59.871V4.936H0z" class="cls-13" transform="translate(2.866 3.025)"/>
            <g id="Group_7235">
                <rect id="Rectangle_6101" width="65.603" height="6.051" class="cls-14" rx="3.025"/>
                <path id="Path_15822" d="M734.69 861.407h-59.552a3.035 3.035 0 0 1-3.026-3.026 3.035 3.035 0 0 1 3.026-3.026h59.552a3.035 3.035 0 0 1 3.026 3.026 3.035 3.035 0 0 1-3.026 3.026z" class="cls-14" transform="translate(-672.112 -786.051)"/>
            </g>
            <g id="Group_7236" transform="translate(6.635)">
                <path id="Rectangle_6102" d="M4.2 0h12.616a4.2 4.2 0 0 1 4.2 4.2v1.851H0V4.2A4.2 4.2 0 0 1 4.2 0z" class="cls-1" transform="translate(14.012)"/>
                <path id="Rectangle_6103" d="M4.2 0h2.319a4.2 4.2 0 0 1 4.2 4.2v1.851H0V4.2A4.2 4.2 0 0 1 4.2 0z" class="cls-1"/>
            </g>
        </g>
        <g id="Group_7238" transform="translate(182.644 173.053)">
            <path id="Path_15823" fill="#ede6dd" d="M339.236 312.009c6.073 0 17.664-.446 17.664 6.308h-3.368a4.129 4.129 0 0 0-4.388 4.389c0 2.986.381 4.062 2.607 4.062h3.374s.211 1.59-1.772 4.369c-1.272 1.782-5.918 3.735-12.929 3.735-4.836 0-1.188-22.863-1.188-22.863z" transform="translate(-259.664 -249.432)"/>
            <path id="Path_15824" fill="none" stroke="#ffad94" stroke-linecap="round" stroke-linejoin="round" stroke-width="2.135px" d="M242.9 278.247c-5.207 18.226-8.813 33.764-10.518 43.548a8.918 8.918 0 0 0 7.864 10.4l12.8 1.337" transform="translate(-230.061 -239.975)"/>
            <path id="Path_15825" d="M272.292 225.08s-14.879 54.665-18.414 61.611c-.335-.069-10.538-.832-19.148-6.14a19.4 19.4 0 0 1-5.521-4.693s5.8-20.223 10.576-30.185c5.405-11.281 19.369-19.218 32.507-20.593z" class="cls-3" transform="translate(-229.209 -225.08)"/>
            <path id="Path_15826" d="M249.563 296.453c-.281-.065-.569-.137-.857-.209l-.252-.065c-.209-.058-.425-.115-.641-.173-.3-.079-.6-.166-.9-.252-1.274-.374-2.62-.828-3.988-1.36-.31-.122-.626-.252-.936-.382a36.746 36.746 0 0 1-5.111-2.606c1.326-4.738 5.8-22.678 5.8-22.678l-.623-4.9 3.077.75s4.913 30.327 4.431 31.875z" class="cls-36" transform="translate(-231.358 -235.936)"/>
        </g>
        <g id="Group_7239" transform="translate(183.285 486.515)">
            <path id="Path_15827" d="M275.1 679.054s1.684 2.606-25.029 1.31c-13.857-.669-19.731-5.442-19.731-5.442a50.658 50.658 0 0 1 .166-6.255c.3-3.318.907-6.551 1.944-7.45.965-.842 7.249.662 14.181.151 6.623-.482 17.391-1.361 18.039-.4a6.64 6.64 0 0 0 3.455 5.514c3.287 2.026 7.599 2.811 6.975 12.572z" class="cls-21" transform="translate(-230.157 -660.538)"/>
            <path id="Path_15828" fill="#935227" d="M268.208 666.485a113.355 113.355 0 0 1-27.239 3.354 43.694 43.694 0 0 1-10.38-1.173c.3-3.318.907-6.551 1.944-7.45.965-.842 7.249.662 14.181.151 6.623-.482 17.391-1.361 18.039-.4a6.64 6.64 0 0 0 3.455 5.518z" transform="translate(-230.236 -660.538)"/>
            <path id="Path_15829" d="M230.315 688.217a40.482 40.482 0 0 1-.028-7.693l23.784.317a3.382 3.382 0 0 1 2.429 1.081l1.29 1.39a3.382 3.382 0 0 0 2.426 1.081l14.832.262a6.665 6.665 0 0 1 .324 3.562z" class="cls-22" transform="translate(-230.098 -666.137)"/>
        </g>
        <g id="Group_7240" transform="translate(180.95 292.564)">
            <path id="Path_15830" d="M277.276 420.851c-.338 3.894-.705 8.638-1.109 14.03-.23 3.139-.475 6.493-.727 10.035v.014c-.518 7.328-1.073 15.433-1.641 23.956-3.21 47.754-7.011 108.718-8.717 120.955a53.549 53.549 0 0 1-15.088 5l-.259.043c-11.057 1.987-22.625.374-22.776-2.008-.684-11.093 2.116-141.168 5.125-190.255.389-2.678 17.327-2.62 30.363 2.145 8.595 3.12 15.498 8.303 14.829 16.085z" class="cls-38" transform="translate(-226.854 -393.83)"/>
            <path id="Path_15831" d="M249.584 401.416c0 .468-.079 1.044-.108 1.764l-.108-.022c-3.326-.569-3.045 9.128-3.412 16.88-.317 6.759-4.369 14.677-14.4 22.416.583-15.621 1.209-29.513 1.843-39.836.255-1.742 7.532-2.325 16.185-1.202z" class="cls-39" transform="translate(-228.173 -393.831)"/>
            <path id="Path_15832" d="M352.155 437.288c-.842 5.96-10.121 83.7-12.482 95.538 0 .05-.05 2.584-9.862 4-.705.1-1.4.194-2.073.273-15.174 1.828-22.8-1.26-22.725-3.275.5-12.5 2.8-62.806 5.046-80.162.144-1.073.281-2.016.418-2.822-1.073-.13-2.131-.266-3.182-.41-.23-.029-.454-.065-.684-.094-.6-.079-1.195-.166-1.792-.266h-.019l-.389-.065-.245-.043c-.374-.058-.741-.115-1.123-.18l-.108-.022-.864-.151-.864-.151a1.344 1.344 0 0 1-.166-.036c-.713-.137-1.425-.274-2.138-.417l-1.627-.346c-.281-.065-.569-.122-.857-.187a.836.836 0 0 1-.13-.029c-.238-.05-.482-.108-.72-.166q-1.674-.389-3.391-.821a.528.528 0 0 1-.1-.029c-.4-.1-.8-.209-1.195-.31-.857-.223-1.735-.461-2.627-.72-.763-.216-1.54-.439-2.325-.669-.576-.166-1.159-.345-1.756-.526q-2.861-.875-5.989-1.908c-2.635-.871-5.341-3.974-7.882-8.048-6.8-10.87-12.4-28.642-12.273-29.29l13.152-.907 43.558-3.016 2.606-.18A265.083 265.083 0 0 1 346.31 419c7.357 4.87 6.79 11.579 5.845 18.288z" class="cls-38" transform="translate(-235.587 -394.114)"/>
            <path id="Path_15833" fill="#015078" d="M352.327 437.282c-.842 5.96-10.121 83.7-12.482 95.538 0 .05-.05 2.584-9.862 4-.705.1-1.4.194-2.073.274 1.339-9.883 6.925-61.547 9.7-85.28a5.731 5.731 0 0 0-7.155-6.205c-8.17 2.145-17.867 4.614-19.81 5.226-1.073-.13-2.131-.266-3.182-.41-.23-.029-.454-.065-.684-.094-.821-.122-1.634-.245-2.447-.374-.41-.065-.821-.137-1.231-.2l-.864-.151c-.346-.065-.684-.122-1.029-.187-.713-.137-1.425-.274-2.138-.418l-1.627-.346c-.281-.065-.569-.122-.857-.187a.836.836 0 0 1-.13-.029c-.238-.05-.482-.108-.72-.166l-.03-.007c-1.1-.252-2.216-.52-3.36-.813a.533.533 0 0 1-.1-.029c-.4-.1-.8-.209-1.195-.31-.857-.223-1.735-.461-2.627-.72-.763-.216-1.54-.439-2.325-.669-.576-.166-1.159-.345-1.756-.525-.281 4.053-.727 10.287-1.641 23.971-3.21 47.754-7.011 108.718-8.717 120.955a53.5 53.5 0 0 1-15.34 5.039h-.007c1.972-25.792 7.234-116.708 9.207-150.778 0 0-3.527-5.327-5.428-9.142h20.631c.662 0 1.339-.022 2.023-.079 11.194-.828 24.388-8.609 23.654-28.383a7.78 7.78 0 0 1 6.183-4.751 10.894 10.894 0 0 1 2.606-.18A265.076 265.076 0 0 1 346.481 419c7.357 4.864 6.789 11.573 5.846 18.282z" opacity="0.55" transform="translate(-235.759 -394.108)"/>
            <path id="Path_15834" d="M301.379 404.845c-13.838 4.106-38.4 4.317-54.269 1.523a48.959 48.959 0 0 1-9.624-2.536 14.247 14.247 0 0 1-3.866-2.152s-.533-.679-.533-4.444c.007-4.837.821-5.407.821-5.407a12.064 12.064 0 0 0 1.735 1.085c2.807 1.485 7.026 2.654 12.065 3.506 15.448 2.625 38.67 2.268 53.1-1.425h.007a32.671 32.671 0 0 0 9.685-3.895.186.186 0 0 0 .029.021c0 .044.071 0 .274.365.933 1.674 3.58 9.5-9.424 13.359z" class="cls-39" transform="translate(-228.601 -391.103)"/>
            <path id="Path_15835" d="M328.1 469.166c.144-1.073.281-2.016.418-2.822q-1.954-.227-3.866-.5c-.6-.079-1.195-.166-1.792-.266h-.022l-.418-.065h.029a57.286 57.286 0 0 0 18.005-2.635c7.378-2.217 13.359-6.955 16.008-5.335 3.338 2.04 3.338 15.169-28.362 11.623z" class="cls-39" transform="translate(-253.628 -409.623)"/>
            <path id="Path_15836" d="M285.849 458.233c-.518 7.328-1.073 15.433-1.641 23.956-3.175-5.708-20.561-32.462-20.194-33.866 7.101 4.82 17.048 8.521 21.835 9.91z" class="cls-39" transform="translate(-237.263 -407.134)"/>
        </g>
        <g id="Group_7244" transform="translate(210.619 86.746)">
            <path id="Path_15837" d="M306.947 190.041c-17.029-2.719-27.6-10.052-27.6-34.815l.87-9.03c2.352-21.873 10.717-25.1 19.005-26.818 15.746-3.269 33.095 1.212 34.174 14.341.567 6.9.094 20.769 0 27.691-.196 14.59-4.032 32.21-26.449 28.631z" class="cls-41" transform="translate(-271.231 -108.872)"/>
            <path id="Path_15838" d="M340.892 206.976c-3.334 5.352-8.935 8.877-18.208 8.3l1.54-5.88c5.076 1.369 12.994 1.759 16.668-2.42z" class="cls-42" transform="translate(-283.372 -133.701)"/>
            <path id="Path_15839" d="M348.3 139.425c-.256-3.12-15.437 5-15.769 6.8 0 0 5.283 10.163 15.929 12.586.127-6.763.223-14.689-.16-19.386z" class="cls-42" transform="translate(-286.13 -114.578)"/>
            <path id="Path_15840" d="M296.839 223.564c6.046 1.09 13.772 1.69 14.117-.044l4.153-17.07c1.1-5.083-6.088-9.078-11.491-10.243-5.4-1.165-10.72 2.039-11.817 7.122l-3.491 16.039c-.379 1.752 4.47 3.464 8.529 4.196z" class="cls-41" transform="translate(-273.736 -130.617)"/>
            <path id="Path_15841" fill="#532523" d="M288.533 118.2c24.434-5.006 35.647 6.587 36.235 24.488.132 4.007-.1 9.95-1.407 13.41-1.52 4.021-6.647 3.706-6.647 3.706.508 17.9-10.8 23.146-21.446 23.55-14.135.536-27.06-11.482-27.06-34.945 0 .004 10.322-28.155 20.325-30.209z" transform="translate(-268.11 -108.503)"/>
            <g id="Group_7242" transform="translate(42.067 41.357)">
                <path id="Path_15842" d="M326.578 172.881c.443 5.113 3.875 9.376 8.439 9.412 2.351.019 2.147-4.721 2.085-9.424-.028-2.057-.081-4.286-.137-6.238-.094-3.262-3.11-5-6.14-3.378-2.768 1.481-4.706 4.326-4.247 9.628z" class="cls-41" transform="translate(-326.51 -162.636)"/>
                <g id="Group_7241" transform="translate(4.099 4.764)">
                    <path id="Path_15843" d="M332.761 175.551a3.034 3.034 0 0 0 2.4 3.138c.7.1.98-.692 1.056-2.106.155-2.888-.312-3.664-1.674-3.355a2.291 2.291 0 0 0-1.782 2.323z" class="cls-42" transform="translate(-332.36 -170.349)"/>
                    <path id="Path_15844" fill="none" stroke="#ea7c6b" stroke-miterlimit="10" stroke-width="0.133px" d="M332.2 170.921c.585-1.8 2.316-2.165 2.981-.99.656 1.158.369 4.022.31 5.538" transform="translate(-332.205 -169.253)"/>
                </g>
            </g>
            <g id="Group_7243">
                <path id="Path_15845" d="M369.451 137.426c3.268-.058 3.616 5.492-.375 9.514-7.172 7.227-22.309 7.735-34.262 3.167L346 138.992c10.024-.313 15.7-1.428 23.451-1.566z" class="cls-45" transform="translate(-286.77 -114.216)"/>
                <path id="Path_15846" d="M298.69 105.441c-10.868 1.176-21.692 6.07-26.641 15.547-4.426 8.477-4.07 18.177-3.879 24.1 5.885 1.408 24.4 1.031 37.256-1.044 18.224-2.941 25.916-8.349 25.916-8.349-.829-23.937-15.31-32.131-32.652-30.254zm-26.924 35.536a10.741 10.741 0 0 1 10.392-11.293c10.98-.608 13.2 6.741 13.2 10.927 0 0-10.624.975-17.706.838a43.219 43.219 0 0 1-5.886-.473z" class="cls-46" transform="translate(-268.072 -105.183)"/>
                <path id="Path_15847" d="M370.85 137.18c2.961-.053 3.814 4.182-.528 7.594-7.951 6.248-21.867 7.911-30.455 4.626l9.683-11.564c9.088-.283 14.277-.531 21.3-.656z" class="cls-46" transform="translate(-288.186 -114.147)"/>
                <path id="Path_15848" fill="#ffc524" d="M330.9 132.27c5.845-13.557-1.656-23.4-12.335-26.942 12.215.9 21.926 7.949 24.563 23.546 8.337-.268 13.37-.5 20.069-.618 2.961-.053 3.815 4.182-.528 7.594-7.82 6.144-21.4 7.851-30.02 4.783a100.662 100.662 0 0 1-14.762 3.455c-1.687.273-3.473.515-5.315.729h-.012c11.063-3.076 15.746-6.517 18.34-12.547z" transform="translate(-280.537 -105.223)"/>
                <rect id="Rectangle_6104" width="7.112" height="4.233" fill="none" stroke="#909999" stroke-linecap="round" stroke-linejoin="round" stroke-width="2.182px" rx="1.768" transform="translate(9.895 36.518)"/>
                <path id="Path_15849" d="M309.268 107.355c.271 1.484-6.029 2.635-6.3 1.151a3.243 3.243 0 0 1 6.3-1.151z" class="cls-45" transform="translate(-277.837 -105.182)"/>
            </g>
        </g>
        <path id="Path_15850" d="M314.9 289.581c-.583 16.29-2.044 35.3-3.268 48.021-.2 2.073-.4 3.981-.576 5.68 0 0-9.408 11.208-39.678 9.855-30.68-1.368-36.914-9.855-36.914-9.855-.043-.878-.072-1.771-.094-2.678-.705-28.1 6.961-71.963 10.207-87.893 2.095-10.265 27.009-27.606 29.146-27.88 8.883-1.13 14.894-.612 23.165.389 1.441.173 18.212 58.71 18.012 64.361z" class="cls-3" transform="translate(-47.998 -51.778)"/>
        <g id="Group_7249" transform="translate(245.892 53.701)">
            <g id="Group_7247" transform="translate(81.553)">
                <path id="Path_15851" d="M469 124.66a1.468 1.468 0 0 0 1.466-1.469l-.006-19.462a8.3 8.3 0 0 0-6.611-8.089l-26.279-5.369a5.35 5.35 0 0 1-4.264-5.217l-.008-6.664a3.188 3.188 0 0 1 3.18-3.187h3.4a1.468 1.468 0 1 0 0-2.936h-3.4a6.125 6.125 0 0 0-6.111 6.126l.007 6.664a8.3 8.3 0 0 0 6.611 8.089l26.284 5.369a5.35 5.35 0 0 1 4.263 5.217l.007 19.461A1.468 1.468 0 0 0 469 124.66z" class="cls-49" transform="translate(-430.364 -62.915)"/>
                <path id="Path_15852" fill="#7064e2" d="M438.91 70.209c0-6.019 2.87-10.9 6.41-10.9l60.83-.035.025 21.794s-61.115.038-61.132.023c-3.411-.243-6.133-5.021-6.133-10.882z" transform="translate(-432.758 -59.277)"/>
                <path id="Path_15853" d="M445.044 84.139c-3.412-.246-6.134-5.025-6.134-10.885a18.02 18.02 0 0 1 .266-3.108c0 .005.01.009.012.017.818 4.51 5.754 6.714 15.748 7.918 20.2 2.435 51.234.893 51.234.893l.006 5.143s-61.115.037-61.132.022z" class="cls-51" transform="translate(-432.758 -62.322)"/>
                <g id="Group_7246" transform="translate(67.007 .035)">
                    <g id="Group_7245">
                        <path id="Path_15854" fill="#ffb380" d="M530.14 80.68c-3.085 0-5.69-4.661-5.69-10.177s2.606-10.177 5.69-10.177 5.69 4.66 5.69 10.177-2.605 10.177-5.69 10.177z" transform="translate(-523.73 -59.606)"/>
                        <path id="Path_15855" d="M529.86 60.766c2.929 0 4.971 4.984 4.971 9.457s-2.042 9.457-4.971 9.457-4.97-4.984-4.97-9.457 2.041-9.457 4.97-9.457m0-1.44c-3.54 0-6.41 4.878-6.41 10.9s2.87 10.9 6.41 10.9 6.41-4.879 6.41-10.9-2.87-10.9-6.41-10.9z" class="cls-51" transform="translate(-523.45 -59.326)"/>
                    </g>
                </g>
                <path id="Path_15856" fill="#d88044" d="M529.452 72.867c0 2.266 1.081 4.1 2.414 4.1s2.414-1.837 2.414-4.1-1.081-4.1-2.414-4.1-2.414 1.833-2.414 4.1z" transform="translate(-458.124 -61.935)"/>
                <path id="Path_15857" d="M533.964 71.111c.785 0 1.42 1.081 1.42 2.414s-.636 2.414-1.42 2.414h-.924c-.784 0-1.42-1.081-1.42-2.414s.636-2.414 1.42-2.414z" class="cls-49" transform="translate(-458.732 -62.592)"/>
                <path id="Path_15858" fill="#a54721" d="M485.838 181.828l.014-13.209.021-21.516a12.628 12.628 0 0 1 2.253-7.2l-13.778-.014.014.022a12.681 12.681 0 0 1 2.2 7.141l-.022 21.567-.014 13.461a9.091 9.091 0 0 1-.777 3.527 1.536 1.536 0 0 0 .936 2.044l.439.144a13.216 13.216 0 0 0 8.7-.079 1.529 1.529 0 0 0 1.008-1.447 1.647 1.647 0 0 0-.151-.677 8.8 8.8 0 0 1-.843-3.764z" transform="translate(-442.687 -81.861)"/>
                <path id="Path_15859" fill="#773017" d="M487.327 197.451a1.529 1.529 0 0 1-1.008 1.447 13.216 13.216 0 0 1-8.7.079l-.439-.144a1.536 1.536 0 0 1-.936-2.044 9.09 9.09 0 0 0 .777-3.527l.014-13.461h9.315l-.014 13.209a8.8 8.8 0 0 0 .842 3.765 1.648 1.648 0 0 1 .149.676z" transform="translate(-443.183 -93.042)"/>
            </g>
            <g id="Group_7248" transform="translate(119.281 68.823)">
                <path id="Path_15860" d="M483.781 172.193a16.15 16.15 0 0 0 10.415-3.935" class="cls-56" transform="translate(-483.058 -158.632)"/>
                <path id="Path_15861" d="M482.776 178.535a16.16 16.16 0 0 0 10.415-3.935" class="cls-56" transform="translate(-482.776 -160.408)"/>
                <path id="Path_15862" d="M484.567 166.9s3.894-.858 9.092-5.588" class="cls-56" transform="translate(-483.278 -156.686)"/>
                <path id="Path_15863" d="M492.251 157.163a10.517 10.517 0 0 0 1.714-2.278" class="cls-56" transform="translate(-485.431 -154.885)"/>
            </g>
            <path id="Path_15864" fill="#fff" d="M488.48 169.128c-1.763 1.981-5.7 5.967-9.071 7.588-5.022 2.416-8.89 2.878-11.185 4.656-2.118 1.641-9.618-14.129-9.618-14.129 1.341-3.125 5.628-15.328 13.563-17.141 0 0-.239 3.408.5 4.87 1.4 2 5.865.555 7.661-1.723a6.594 6.594 0 0 0 1.163-4.2s3.955 1.157 4.891 2.365L483 160.471z" transform="translate(-356.724 -84.426)"/>
            <path id="Path_15865" d="M407.152 233.161c-2.921 2.11-28.866 12.3-30.526 12.7l7.781-23.2 17.147-3.8z" class="cls-41" transform="translate(-333.756 -103.984)"/>
            <path id="Path_15866" fill="none" stroke="#fff" stroke-linecap="round" stroke-linejoin="round" stroke-width="3px" d="M468.805 179.327c-2.136 2.085-1.333 1.527-4.285 4.287" transform="translate(-358.38 -92.91)"/>
            <path id="Path_15867" fill="none" stroke="#ffad96" stroke-linecap="round" stroke-linejoin="round" stroke-width="2.135px" d="M427.5 185.5c-12.026 11.1-34.077 31.028-36.57 32.247-3.178 1.553-39.618 7.288-57.045 9.2" transform="translate(-321.783 -94.639)"/>
            <path id="Path_15868" d="M369.129 236.147a47.637 47.637 0 0 1-1.425 9.718c-.36 1.5-.749 2.894-1.116 4.1-.209.7-.41 1.332-.6 1.886-.007.022-.014.036-.022.058-.065.187-.122.367-.18.54-.324.936-.561 1.569-.648 1.8a.165.165 0 0 0-.022.065c-.014.022-.014.029-.014.029l-.576.23c-.223.094-.511.2-.857.338h-.007c-2.764 1.109-9.149 3.621-16.175 6.234-.086.029-.166.065-.252.094-8.235 3.146-8.832 5.867-9.156 28.333 0 0-6.5-14.03-12.273-29-6.723-17.435-12.453-36.136-5.737-35.366 8.242.943 19.22 3.2 22.877 2.721 9.372-1.231 17.118-2.642 24.777-3.786.002-.001 1.615 4.433 1.406 12.006z" class="cls-3" transform="translate(-317.072 -105.465)"/>
        </g>
        <path id="Path_15869" d="M363.716 254.32c-.367 1.5-.756 2.894-1.116 4.1-.216.7-.417 1.332-.6 1.886-.007.022-.014.036-.022.058-.065.187-.122.367-.18.54-.324.936-.561 1.569-.648 1.8a.658.658 0 0 0-.022.065c-.014.022-.014.029-.014.029l-.576.23c-.223.086-.511.2-.857.338h-.007c-2.757 1.087-9.156 3.585-16.175 6.234-.086.029-.166.065-.252.094-8.235 3.146-8.832 5.867-9.156 28.333-.677 18.946-2.541 41.571-3.844 53.7 0 0-6.239 9.831-27.412 6.535 10.248-1.67 19.233-4.515 20.05-11.754 2.368-20.963 2.589-59.811 2.662-66.319.05-4.643-5.1-11.4-5.1-11.4s29.117-9.639 43.269-14.469z" class="cls-36" transform="translate(-67.192 -60.218)"/>
        <path id="Path_15870" fill="#99051a" d="M311.65 381.74c-.2 2.073-.4 3.981-.576 5.68 0 0-9.408 11.208-39.678 9.855-30.68-1.368-36.914-9.855-36.914-9.855-.043-.878-.072-1.771-.094-2.678 5 2.894 13.858 7.9 29.492 8.122 36.195.506 43.038-5.234 47.77-11.124z" transform="translate(-48.016 -95.916)"/>
        <g id="Group_7251" transform="translate(185.646 291.504)">
            <path id="Path_15871" fill="#702a23" d="M310.6 399.017a.466.466 0 0 0-.065.058.158.158 0 0 0-.036.029c-.014.014-.029.022-.043.036a.025.025 0 0 0-.014.007c-.043.036-.086.079-.137.13s-.1.086-.151.137c-1.821 1.562-4.765 2.851-8.48 3.873-10.236 2.829-26.267 3.635-40.34 2.678-1.159-.072-2.3-.166-3.426-.266-3.75-.338-7.306-.813-10.5-1.4a49.288 49.288 0 0 1-9.624-2.627 14.4 14.4 0 0 1-3.866-2.188s-.533-.684-.533-4.449c.007-4.837.821-5.4.821-5.4a12.213 12.213 0 0 0 1.735 1.1c2.807 1.512 7.026 2.721 12.065 3.621 3.246.583 6.831 1.037 10.61 1.353 1.123.1 2.267.18 3.419.252 13.425.835 28.571.058 39.066-2.527h.007a32.518 32.518 0 0 0 9.293-3.556c.137-.079.266-.158.4-.245a.208.208 0 0 0 .029.022c0 .007.007.007.014.014a1.543 1.543 0 0 1 .259.353 2.266 2.266 0 0 1 .115.23q.054.119.108.259a12.461 12.461 0 0 1 .518 3.7v.058c.063 3.179-.866 4.388-1.244 4.748z" transform="translate(-233.379 -389.63)"/>
            <path id="Path_15872" d="M338.189 394.208v.058c0 3.1-.871 4.348-1.238 4.751a.465.465 0 0 0-.065.058.155.155 0 0 0-.036.029c-.014.014-.029.022-.043.036a.025.025 0 0 0-.014.007c-.043.036-.086.079-.137.13s-.1.086-.151.137c-1.821 1.562-4.765 2.851-8.48 3.873a43.227 43.227 0 0 0-.576-9.855h.007a32.518 32.518 0 0 0 9.293-3.556c.137-.079.266-.158.4-.245a.213.213 0 0 0 .029.022c0 .007.007.007.014.014a1.541 1.541 0 0 1 .259.353 2.272 2.272 0 0 1 .115.23q.054.119.108.259a10.564 10.564 0 0 1 .515 3.699z" class="cls-62" transform="translate(-259.733 -389.63)"/>
            <path id="Path_15873" d="M248.809 394.517c-.022.065-.425 5.118-.6 9.941a49.284 49.284 0 0 1-9.624-2.627c-.727-.749-1.332-1.375-1.778-1.756 0 0-.54-.684-.54-4.449a16.616 16.616 0 0 1 .475-4.729c.187-.561.346-.677.346-.677 2.312 1.785 6.512 3.218 11.721 4.297z" class="cls-62" transform="translate(-234.189 -389.795)"/>
            <g id="Group_7250" transform="translate(2.432 1.253)">
                <path id="Path_15874" fill="#065785" d="M333.488 403.043c-.087.888 3.224-1 3.359-1.888.382-2.5-.017-7.395-.96-9.537-.346-.785-3.522.479-3.229 1.291a27.917 27.917 0 0 1 .83 10.134z" transform="translate(-263.619 -391.37)"/>
                <path id="Path_15875" d="M305.236 410.19c-.016.982-3.489 1.283-3.447.3a82.122 82.122 0 0 0-.889-12.029 3.282 3.282 0 0 1 3.465-.283c.557 1.845.935 7.888.871 12.012z" class="cls-38" transform="translate(-254.727 -393.177)"/>
                <path id="Path_15876" d="M269.757 410.287c.079.98-3.2.646-3.329-.325-.456-3.4-.1-9.362.934-12.1a3.759 3.759 0 0 1 3.558.333 39.313 39.313 0 0 0-1.163 12.092z" class="cls-38" transform="translate(-245.015 -393.106)"/>
                <path id="Path_15877" d="M240.105 402.932c.019.821-3.23.3-3.3-.514-.248-2.861.5-7.661 1.7-9.864.393-.721 3.619.122 3.261.861a25.156 25.156 0 0 0-1.661 9.517z" class="cls-38" transform="translate(-236.758 -391.625)"/>
            </g>
        </g>
        <g id="Group_7252" transform="translate(173.979 290.772)">
            <path id="Path_15878" fill="#e9f1ff" d="M243.465 394.067l-.108-.022c-3.326-.561-3.045 9.135-3.412 16.88a33.118 33.118 0 0 1-2.052 10.287 32.428 32.428 0 0 1-11.546 14.588c-.115.086-.238.173-.36.266-.058.043-.094.065-.094.065a27.642 27.642 0 0 0-1.31-8.76c-.684-2.375-1.562-4.823-2.476-7.278-1.771-4.773-3.664-9.6-4.5-14.066a24.359 24.359 0 0 1-.418-3.441 12.491 12.491 0 0 1 3.5-9.934 12.965 12.965 0 0 1 5.392-3.448 13.831 13.831 0 0 1 3.247-.561 20.836 20.836 0 0 1 2.591.014c.13 0 .252.014.382.022.007-.007.007-.007.014 0 .972.065 2.268.23 3.455.4.518.072 1.015.151 1.447.223.086.014.158.029.238.043a8.539 8.539 0 0 1 4.909 2.26 3.627 3.627 0 0 1 1.101 2.462z" transform="translate(-217.171 -388.613)"/>
            <path id="Path_15879" d="M222.818 426.105a4.912 4.912 0 0 1-.54.77c-1.771-4.773-3.664-9.6-4.5-14.066a4.123 4.123 0 0 1 1.843 2.462 4.766 4.766 0 0 1 .151 1.454 7.4 7.4 0 0 1 3.736 4.715 6.583 6.583 0 0 1-.69 4.665z" class="cls-1" transform="translate(-217.341 -395.392)"/>
            <path id="Path_15880" d="M226.916 397.445c-1.576 2.57-4.787 3.3-7.558 2.534a3.7 3.7 0 0 1-1.821 2.685c-.115.058-.23.108-.346.158a12.491 12.491 0 0 1 3.5-9.934 12.965 12.965 0 0 1 5.392-3.448c1.747 2.318 2.381 5.485.833 8.005z" class="cls-1" transform="translate(-217.171 -388.845)"/>
            <path id="Path_15881" d="M241.528 389.551c-1.7-.216-5.428 5.622-6.263 10.7-.806 4.9-.518 10.553-1.677 10.682-2.347.259-1.879-5.492-1.029-10.02.763-4 3.974-10.74 7.328-11.64.518.072 1.015.151 1.447.223.094.026.158.048.194.055z" transform="translate(-221.288 -388.797)" style="mix-blend-mode:multiply;isolation:isolate" fill="#cedaed"/>
        </g>
        <circle id="Ellipse_1418" cx="2.509" cy="2.509" r="2.509" class="cls-27" transform="translate(314.649 348.44)"/>
        <path id="Path_15882" d="M240.779 433.5a32.428 32.428 0 0 1-11.546 14.591c-.115.086-.238.173-.36.266-.058.043-.094.065-.094.065a27.642 27.642 0 0 0-1.31-8.76c2.793-.806 4.931-6.047 6.558-6.81 2.735-1.276 4.837 1.064 6.752.648z" class="cls-1" transform="translate(-46.077 -110.127)"/>
        <path id="Path_15883" d="M808.421 847.2c-.691 1.073-3.11 2.879-4.578 4.031l-1.353-1.116.345 1.872c-.425.31-.871.612-1.325.907l-2.368-2.937 1.325 3.592c-1.454.893-4.1 2.289-6.81 3.607h-14.995l-1.893-4.341c14.824.644 11.6-8.12 27.556-12.425z" class="cls-30" transform="translate(-199.967 -224.41)"/>
        <path id="Path_15884" d="M240.779 433.5a32.428 32.428 0 0 1-11.546 14.591c-.115.086-.238.173-.36.266-.058.043-.094.065-.094.065a27.642 27.642 0 0 0-1.31-8.76c2.793-.806 4.931-6.047 6.558-6.81 2.735-1.276 4.837 1.064 6.752.648z" class="cls-1" transform="translate(-46.077 -110.127)"/>
        <path id="Path_15885" d="M247.037 395.235l-.108-.022c-3.326-.561-3.045 9.135-3.412 16.88-.338 7.076-2.577 16.744-13.6 24.878a22.6 22.6 0 0 0 6.065-7.766 29.445 29.445 0 0 0 2.861-10.77c.828-10.423.95-25.54 7.09-25.655a3.627 3.627 0 0 1 1.104 2.455z" transform="translate(-46.764 -99.009)" style="mix-blend-mode:multiply;isolation:isolate" fill="#b6c4d8"/>
        <path id="Line_1637" fill="none" stroke="#c16130" stroke-linecap="round" stroke-miterlimit="10" stroke-width="10px" d="M0 0L560.038 0" transform="translate(63 635.902)"/>
    </g>
</svg>
