<svg xmlns="http://www.w3.org/2000/svg" width="73.501" height="73.501" viewBox="0 0 73.501 73.501">
    <path fill="#9b9b9b" d="M8655.62 5585.5h-7.467a2.156 2.156 0 0 1-2.153-2.153v-28.713a2.156 2.156 0 0 1 2.153-2.153h7.467a2.156 2.156 0 0 1 2.153 2.153v28.713a2.156 2.156 0 0 1-2.153 2.153zm43.908-4.307h-37.448v-24.406l1.621-1.155a12.47 12.47 0 0 1 15.892 1.155h15.073a5.026 5.026 0 0 1 5.024 4.928 4.935 4.935 0 0 1-1.437 3.568 5.2 5.2 0 0 1-3.686 1.553h-13.107a2.153 2.153 0 0 0 0 4.307h15.123a8.613 8.613 0 0 0 6.843-3.381l8.143-10.648a4.3 4.3 0 0 1 3.47-1.746 4.428 4.428 0 0 1 3.761 6.821l-8.4 13.071a12.921 12.921 0 0 1-10.867 5.935zm-10.891-33.306a17.944 17.944 0 1 1 17.943-17.944 17.965 17.965 0 0 1-17.942 17.944zm-6.23-17.743a.439.439 0 0 0-.317.136.433.433 0 0 0-.138.319v1.806a.416.416 0 0 0 .129.311c1.835 1.953 4.216 4.683 7.077 8.114a.415.415 0 0 0 .354.171h2.771a.411.411 0 0 0 .411-.256.388.388 0 0 0-.055-.483c-2.741-3.362-4.936-5.924-6.523-7.615a7.257 7.257 0 0 0 3.922-1.562 5.355 5.355 0 0 0 1.834-3.326h2.387a.435.435 0 0 0 .453-.453v-1.451a.435.435 0 0 0-.453-.453h-2.429a4.951 4.951 0 0 0-.91-2.046h3.309a.439.439 0 0 0 .455-.456v-1.451a.435.435 0 0 0-.455-.453h-11.821a.449.449 0 0 0-.326.127.442.442 0 0 0-.129.326v1.891a.466.466 0 0 0 .455.455h2.062c1.988 0 3.27.54 3.808 1.6h-5.869a.441.441 0 0 0-.455.455v1.451a.438.438 0 0 0 .455.453h6.068a2.785 2.785 0 0 1-1.458 1.777 6.447 6.447 0 0 1-3.02.61z" transform="translate(-8646 -5511.999)"/>
</svg>
