<svg xmlns="http://www.w3.org/2000/svg" width="154.833" height="96.605" viewBox="0 0 154.833 96.605">
    <defs>
        <style>
            .cls-1{fill:#ff003b}.cls-2{fill:#fff;opacity:.6}.cls-4{fill:#ff073a}.cls-6{opacity:.3}
        </style>
    </defs>
    <g id="Group_6078" transform="translate(14901 -10854.453)">
        <path id="Path_359" d="M48.856 150.562l136.513 19.65L203.69 188.7z" class="cls-1" transform="translate(-14949.856 10737.801)"/>
        <path id="Path_360" d="M48.856 150.562l136.513 19.65L203.69 188.7z" class="cls-2" transform="translate(-14949.856 10737.801)"/>
        <path id="Path_361" d="M48.856 150.562l136.513 19.65-6.335 26.734z" class="cls-1" transform="translate(-14949.856 10737.801)"/>
        <path id="Path_362" fill="#d5133b" d="M48.856 150.562l136.513 19.65-6.335 26.734z" transform="translate(-14949.856 10737.801)"/>
        <path id="Path_363" d="M209.239 96.893l7.927 37.143a3.751 3.751 0 0 1-2.877 4.438l-70.708 15.09a3.75 3.75 0 0 1-4.438-2.877l-7.927-37.143a3.744 3.744 0 0 1 2.877-4.438l70.707-15.09a3.745 3.745 0 0 1 4.438 2.877z" class="cls-4" transform="translate(-14982.864 10760.519)"/>
        <path id="Path_364" d="M209.239 96.893l7.927 37.143a3.751 3.751 0 0 1-2.877 4.438l-70.708 15.09a3.75 3.75 0 0 1-4.438-2.877l-7.927-37.143a3.744 3.744 0 0 1 2.877-4.438l70.707-15.09a3.745 3.745 0 0 1 4.438 2.877z" opacity="0.404" transform="translate(-14982.864 10760.519)"/>
        <path id="Path_365" d="M207.955 94.466l-23.628 29a15.224 15.224 0 0 1-18.652 3.98l-33.409-16.83a3.743 3.743 0 0 1 2.281-1.513l70.708-15.09a3.738 3.738 0 0 1 2.7.453z" class="cls-4" transform="translate(-14983.319 10760.519)"/>
        <path id="Path_366" d="M48.856 150.562l112.6 26.759 17.581 19.626z" class="cls-1" transform="translate(-14949.856 10737.801)"/>
        <path id="Path_367" d="M48.856 150.562l112.6 26.759 17.581 19.626z" class="cls-2" transform="translate(-14949.856 10737.801)"/>
        <path id="Rectangle_553" d="M0 0H0.599V14.519H0z" class="cls-4" transform="rotate(-59.67 2084.828 18415.088)"/>
        <path id="Rectangle_554" d="M0 0H0.599V5.223H0z" class="cls-4" transform="rotate(-59.637 2110.066 18410.874)"/>
        <path id="Path_368" d="M48.856 150.562l112.6 26.759-21.889 26.379z" class="cls-4" transform="translate(-14949.856 10737.801)"/>
        <path id="Path_369" d="M287.267 248.791a1.192 1.192 0 0 1-.44-.085l-18.344-7.262a1.2 1.2 0 0 1 .882-2.227l18.344 7.262a1.2 1.2 0 0 1-.442 2.312z" class="cls-4" transform="translate(-15037.663 10702.268)"/>
        <path id="Path_370" d="M287.267 248.791a1.192 1.192 0 0 1-.44-.085l-18.344-7.262a1.2 1.2 0 0 1 .882-2.227l18.344 7.262a1.2 1.2 0 0 1-.442 2.312z" class="cls-6" transform="translate(-15037.663 10702.268)"/>
        <path id="Path_371" d="M291.152 233.477a1.191 1.191 0 0 1-.441-.084l-9.852-3.9a1.2 1.2 0 1 1 .882-2.227l9.852 3.9a1.2 1.2 0 0 1-.441 2.311z" class="cls-4" transform="translate(-15042.627 10707.063)"/>
        <path id="Path_372" fill="#fff" d="M291.152 233.477a1.191 1.191 0 0 1-.441-.084l-9.852-3.9a1.2 1.2 0 1 1 .882-2.227l9.852 3.9a1.2 1.2 0 0 1-.441 2.311z" opacity="0.5" transform="translate(-15042.627 10707.063)"/>
        <path id="Path_373" d="M251.376 248.609a1.191 1.191 0 0 1-.44-.085l-17.886-7.081a1.2 1.2 0 0 1 .882-2.227l17.885 7.082a1.2 1.2 0 0 1-.441 2.311z" class="cls-4" transform="translate(-15023.448 10702.267)"/>
        <path id="Path_374" d="M251.376 248.609a1.191 1.191 0 0 1-.44-.085l-17.886-7.081a1.2 1.2 0 0 1 .882-2.227l17.885 7.082a1.2 1.2 0 0 1-.441 2.311z" class="cls-6" transform="translate(-15023.448 10702.267)"/>
    </g>
</svg>
