<svg xmlns="http://www.w3.org/2000/svg" width="369.998" height="74" viewBox="0 0 369.998 74">
    <defs>
        <linearGradient id="linear-gradient" x2="1" y1=".5" y2=".5" gradientUnits="objectBoundingBox">
            <stop offset="0" stop-color="#ff073a"/>
            <stop offset="1" stop-color="#a0262a"/>
        </linearGradient>
        <filter id="Union_169" width="369.998" height="74" x="0" y="0" filterUnits="userSpaceOnUse">
            <feOffset dy="3"/>
            <feGaussianBlur result="blur" stdDeviation="5"/>
            <feFlood flood-opacity=".251"/>
            <feComposite in2="blur" operator="in"/>
            <feComposite in="SourceGraphic"/>
        </filter>
        <style>
            .cls-3{fill:#fff}
        </style>
    </defs>
    <g id="Group_7605" transform="translate(-43.002 -2467)">
        <g filter="url(#Union_169)" transform="translate(43 2467)">
            <path id="Union_169-2" fill="#31343b" d="M19199.113 21896a4 4 0 0 1-4-4v-6.1l-11.375-9.887a2 2 0 0 1 0-3.018l11.375-9.887v-7.1a4 4 0 0 1 4-4h319.934a4 4 0 0 1 4 4v36a4 4 0 0 1-4 4z" transform="translate(-19168.05 -21840)"/>
        </g>
        <rect id="Rectangle_5573" width="60" height="44" fill="url(#linear-gradient)" rx="4" transform="translate(338 2479)"/>
        <!-- <g id="checklist" transform="translate(359 2489)">
            <g id="Group_7102" transform="translate(4.219)">
                <g id="Group_7101">
                    <path id="Path_15709" d="M97.734 1.406h-.823a2.11 2.11 0 0 0-3.978 0h-.823A2.112 2.112 0 0 0 90 3.516v.7h9.844v-.7a2.112 2.112 0 0 0-2.11-2.11z" class="cls-3" transform="translate(-90)"/>
                </g>
            </g>
            <g id="Group_7104" transform="translate(0 2.813)">
                <g id="Group_7103">
                    <path id="Path_15710" d="M16.172 60h-.7v2.109a.7.7 0 0 1-.7.7H3.516a.7.7 0 0 1-.7-.7V60h-.7A2.112 2.112 0 0 0 0 62.109v16.969a2.112 2.112 0 0 0 2.109 2.109h14.063a2.112 2.112 0 0 0 2.109-2.109V62.109A2.112 2.112 0 0 0 16.172 60zM8.231 75.356l-2.812 2.813a.7.7 0 0 1-.994 0l-1.407-1.406a.7.7 0 1 1 .994-.994l.909.909 2.315-2.315a.7.7 0 1 1 .994.994zm0-4.969L5.419 73.2a.7.7 0 0 1-.994 0l-1.407-1.406a.7.7 0 0 1 .994-.994l.909.909 2.315-2.315a.7.7 0 1 1 .994.994zm0-4.922l-2.812 2.813a.7.7 0 0 1-.994 0l-1.407-1.406a.7.7 0 0 1 .994-.994l.909.909 2.315-2.315a.7.7 0 1 1 .994.994zm6.534 11.5h-4.218a.7.7 0 1 1 0-1.406h4.219a.7.7 0 0 1 0 1.406zm0-4.969h-4.218a.7.7 0 1 1 0-1.406h4.219a.7.7 0 0 1 0 1.406zm0-4.922h-4.218a.7.7 0 1 1 0-1.406h4.219a.7.7 0 0 1 0 1.406z" class="cls-3" transform="translate(0 -60)"/>
                </g>
            </g>
        </g> -->
    </g>
</svg>
